<svg version="1.2" xmlns="http://www.w3.org/2000/svg" viewBox="0 0 1014 808" width="1014" height="808">
	<title>undraw_new_ideas_jdea-svg</title>
	<style>
		.s0 { fill: #00e39f } 
		.s1 { fill: #20a58f } 
		.s2 { fill: #00cc8f } 
		.s3 { fill: #a0616a } 
		.s4 { fill: #2f2e41 } 
		.s5 { opacity: .1;fill: #000000 } 
		.s6 { fill: #a4ffe5 } 
		.s7 { fill: #ffffff } 
	</style>
	<path class="s0" d="m957 270.3c0 35.2-8.3 64.1-22.8 88.9q-1.8 3.1-3.7 6.1-1.9 3-3.9 5.9-2 2.9-4.2 5.7-2.1 2.8-4.4 5.6c-53.1 64.9-151.9 100.5-241.1 158.1-263.5 170-292-102.4-280.1-270.3 4.8-67.7 31.1-129.8 73.1-177.3q3.3-3.7 6.7-7.4 3.4-3.6 7-7.1 3.5-3.5 7.2-6.9 3.7-3.3 7.5-6.6c47.6-40.5 109.1-65 178.6-65 119.3 0 221.1 72 261.5 173.3q4.6 11.6 8.1 23.5 3.5 11.9 5.8 24.1 2.4 12.2 3.5 24.6 1.2 12.4 1.2 24.8z"/>
	<path class="s1" d="m736.6 60.9l-266.7 32.1q3.3-3.7 6.7-7.4 3.4-3.6 7-7.1 3.5-3.5 7.2-6.9 3.7-3.3 7.5-6.6z"/>
	<path class="s2" d="m934.2 359.2q-1.8 3.1-3.7 6.1-1.9 3-3.9 5.9-2 2.9-4.2 5.7-2.1 2.8-4.4 5.6l-228.4-27.5z"/>
	<path class="s2" d="m947.8 201.2l-387.2-50.2 377.8 22.3q1.4 3.5 2.7 6.9 1.2 3.5 2.4 6.9 1.2 3.5 2.2 7.1 1.1 3.5 2.1 7z"/>
	<path class="s0" d="m423 72q0 1 0 2c-0.7 8.5-5 16.1-11.9 21-7 4.8-15.7 6.2-23.8 3.9-8.1-2.3-14.7-8.2-18-15.9-3.3-7.8-3-16.6 1-24.1q0.2-0.4 0.4-0.8 0.3-0.4 0.5-0.9 0.3-0.4 0.6-0.8 0.2-0.4 0.5-0.8c3.4-4.6 8.1-8.1 13.5-10 5.4-1.9 11.2-2.1 16.7-0.6 5.6 1.6 10.5 4.8 14.1 9.2 3.7 4.4 5.9 9.8 6.3 15.5q0.1 1.1 0.1 2.3z"/>
	<path class="s1" d="m423 72q0 1 0 2l-42-5 41.9 0.7q0.1 1.1 0.1 2.3z"/>
	<path class="s1" d="m413 86.1l-38.7 4.7q-0.5-0.5-0.9-1-0.3-0.4-0.7-0.9-0.4-0.5-0.7-1-0.4-0.5-0.7-1.1z"/>
	<path class="s1" d="m402 55.1l-31.7 3.8q0.2-0.4 0.4-0.8 0.3-0.4 0.5-0.9 0.3-0.4 0.6-0.8 0.2-0.4 0.5-0.8z"/>
	<path class="s0" d="m806.8 576.1q-0.5 0.9-1.1 1.8c-4.4 7.1-11.9 11.9-20.3 12.9-8.3 1-16.7-1.8-22.8-7.6-6.1-5.9-9.2-14.2-8.5-22.6 0.8-8.4 5.2-16 12.2-20.7q0.4-0.3 0.8-0.6 0.4-0.2 0.8-0.5 0.5-0.2 0.9-0.5 0.4-0.2 0.9-0.4c5.1-2.5 10.9-3.4 16.5-2.6 5.7 0.9 11 3.5 15.1 7.4 4.2 3.9 7 9.1 8.2 14.7 1.1 5.6 0.5 11.4-1.8 16.7q-0.4 1-0.9 2z"/>
	<path class="s1" d="m806.8 576.1q-0.5 0.9-1.1 1.8l-34.6-24.1 36.6 20.3q-0.4 1-0.9 2z"/>
	<path class="s1" d="m791.3 583.9l-36.4-14.1q-0.2-0.6-0.3-1.2-0.1-0.6-0.2-1.2-0.1-0.6-0.2-1.2 0-0.6-0.1-1.2z"/>
	<path class="s1" d="m796.1 551.4l-29.8-11.5q0.4-0.3 0.8-0.6 0.4-0.2 0.8-0.5 0.5-0.2 0.9-0.5 0.4-0.2 0.9-0.4z"/>
	<path class="s0" d="m1005.1 93.5q0.7 0.7 1.3 1.5c5.5 6.4 7.7 15 6.1 23.3-1.5 8.2-6.8 15.4-14.2 19.4-7.4 4-16.3 4.4-24 1.1-7.8-3.2-13.7-9.8-16.1-17.9q-0.2-0.4-0.3-0.9-0.1-0.5-0.2-1-0.1-0.4-0.2-0.9-0.1-0.5-0.2-1c-0.8-5.6 0.1-11.4 2.7-16.6 2.5-5.1 6.6-9.3 11.6-12.1 5-2.7 10.7-3.9 16.4-3.2 5.7 0.6 11.1 2.9 15.4 6.7q0.9 0.7 1.7 1.6z"/>
	<path class="s1" d="m1005.1 93.5q0.7 0.7 1.3 1.5l-33.5 25.6 30.5-28.7q0.9 0.7 1.7 1.6z"/>
	<path class="s1" d="m1007.8 110.5l-24.5 30.5q-0.6-0.1-1.3-0.2-0.6 0-1.2-0.1-0.6-0.1-1.2-0.2-0.6-0.2-1.2-0.3z"/>
	<path class="s1" d="m978.3 96l-20.1 24.9q-0.2-0.4-0.3-0.9-0.1-0.5-0.2-1-0.1-0.4-0.2-0.9-0.1-0.5-0.2-1z"/>
	<path class="s3" d="m479.8 609.5c0 0 61.4 2.5 61.4 17.9 0 15.3-69.1 0-69.1 0z"/>
	<path class="s4" d="m387.6 845l-115.2-7.7-5.1-61.4-25.6 53.7-112.7-15.3c2.6-97.3 43.6-192 46.1-204.8 2.6-12.8 8.7-65.7 8.7-65.7 11.2-23.8 69.8-26 115.8-23.9 19 0.9 35.9 2.6 46.3 3.7 6.9 0.8 11 1.4 11 1.4 18.3 18.9 30.2 44.7 37.4 73.5 26.3 103.7-6.7 246.5-6.7 246.5z"/>
	<path class="s3" d="m259.6 251c-35.4 0-64-28.6-64-64 0-35.4 28.6-64 64-64 35.4 0 64 28.6 64 64 0 35.4-28.6 64-64 64z"/>
	<path class="s3" d="m216.1 202.4c0 0-17.9 79.3-46.1 102.4-28.2 23 110.1 0 110.1 0 0 0-30.7-51.2-7.7-74.3 23-23-56.3-28.1-56.3-28.1z"/>
	<path class="s1" d="m346.6 530.1l-42.4 4.7-118.8 13.2c0 0-0.6-1.5-1.6-4.2-8.6-23.6-50.2-138.1-54.8-172.4-5.1-38.5 48.7-84.5 48.7-84.5 0 0 51.2-10.3 66.5-10.3 15.4 0 76.8 23.1 76.8 23.1l23 206.1 1.9 17.8z"/>
	<path class="s5" d="m394.3 598.5l-86.1-50.5c0 0-1.5-4.9-4-13.2-1.3-4.2-2.9-9.2-4.6-14.9-10-31.9-26.6-84.5-40-122.9-20.5-58.9 79.4 104.9 79.4 104.9l5 3.9 1.9 17.8c6.9 0.8 11 1.4 11 1.4 18.3 18.9 30.2 44.7 37.4 73.5z"/>
	<path class="s1" d="m280.1 304.8c0 0-25.6 33.3-5.1 92.2 20.4 58.8 48.6 151 48.6 151l148.5 87.1 20.5-25.6-138.3-107.6c0 0-5.1-194.6-30.7-202.2-25.6-7.7-43.5 5.1-43.5 5.1z"/>
	<path class="s3" d="m153.4 528.8c0 0 35.8 74.3 51.2 66.6 15.3-7.7-38.4-84.5-38.4-84.5z"/>
	<path class="s1" d="m149.5 325.3l-135.7 112.6c0 0-51.2 35.9 43.5 61.5 94.8 25.6 102.5 40.9 102.5 40.9 0 0 10.2-33.3 23-28.1l-110.1-53.8 89.6-53.8z"/>
	<path class="s4" d="m95 239.5c7.1-3.5 22.8-10.6 36.2-19.2-0.9-27.9 2.5-53.2 12.6-66.6 5.6-12.8 17.5-25.7 26.8-35.8 22.7-24.8 73.2-38.6 82.1-26.2 67.6 1.3 74.7 54.3 74.7 54.3-0.3 22.2-23.3 22.9-43.5 22.1 1.8 15.1-3 30.8-17 37.8-26.7 13.3-34.7 30.7-21.3 42.7 13.3 12 37.3 44 5.3 52-32 8-36 24-26.7 30.7 9.4 6.7-21.3-12-21.3-12 0 0-5.4 32-33.4 24-2.5-0.7-5-2.6-7.4-5.3-7.6 8.3-14.4 13.2-19.4 13.2-29.2 0.2-25.7-32.1-25.7-32.1 0 0-34.6 9.7-23.8 5.8 10.8-3.9 11.3-20.4-17.4-36.7-28.7-16.3 3.1-40.7 19.2-48.7z"/>
	<path class="s6" d="m452.4 323.2l-0.5-0.1 1.2 4.3q0.4 2.3 0.8 4.5 0.5 2.2 1.1 4.5 0.6 2.2 1.3 4.4 0.6 2.1 1.4 4.3l33.2 126.3c0.6 2 1.4 3.9 2.5 5.7 1 1.8 2.4 3.4 3.9 4.8 1.5 1.4 3.3 2.5 5.1 3.4 1.9 0.9 3.9 1.5 6 1.8l67.7 10.5c2.2 0.3 4.4 0.3 6.6 0 2.2-0.3 4.3-1 6.3-2 1.9-1 3.7-2.3 5.3-3.8 1.6-1.5 2.9-3.3 4-5.2l64.4-120.3q0.7-1.3 1.4-2.5 0.8-1.3 1.4-2.6 0.7-1.3 1.4-2.6 0.6-1.3 1.3-2.6l2.2-4.1h-0.4c13.8-32.8 11.6-70.1-6-100.9-17.7-30.9-48.7-51.7-84-56.3-35.2-4.7-70.6 7.4-95.6 32.6-25.1 25.2-36.9 60.7-32 95.9z"/>
	<path class="s7" d="m580.3 505.9q-0.5 0-0.9-0.1-0.5 0-0.9 0-0.5 0-0.9-0.1-0.4-0.1-0.9-0.1l-70.8-11c-2.3-0.3-4.4-1-6.5-2-2-0.9-3.9-2.2-5.6-3.7-1.7-1.5-3.1-3.3-4.3-5.2-1.2-1.9-2.1-4-2.6-6.2l-34.8-132.1q-0.8-2.2-1.5-4.5-0.7-2.3-1.3-4.6-0.6-2.4-1.1-4.7-0.5-2.4-1-4.7l-0.8-5.8c-2.4-18.4-0.4-37.2 5.7-54.8 6.1-17.5 16.2-33.4 29.6-46.4 13.3-13 29.4-22.7 47.2-28.4 17.7-5.6 36.5-7.1 54.9-4.3l-0.3 2c-18.2-2.8-36.8-1.3-54.3 4.4-17.5 5.6-33.5 15.3-46.6 28.2-13.1 12.9-23 28.7-28.9 46.1-5.9 17.4-7.7 36-5.2 54.2l0.7 4.4q0.4 2.3 0.9 4.6 0.5 2.4 1.1 4.7 0.6 2.3 1.3 4.5 0.7 2.3 1.5 4.6l34.8 132.1c0.5 2 1.3 3.9 2.4 5.6 1.1 1.8 2.4 3.4 3.9 4.8 1.6 1.4 3.3 2.5 5.2 3.4 1.9 0.9 3.8 1.5 5.9 1.8l70.8 11c2.2 0.3 4.4 0.3 6.6 0 2.2-0.3 4.3-1 6.2-2 2-1 3.8-2.3 5.4-3.8 1.6-1.5 2.9-3.3 3.9-5.2l1.8 0.9q-1.5 2.8-3.7 5.1-2.2 2.3-4.9 3.9-2.7 1.7-5.8 2.5-3 0.9-6.2 0.9z"/>
	<path class="s7" d="m555.1 469.6l43.1-117.7 2.5 0.9-43.1 117.7z"/>
	<path class="s7" d="m525.3 341.1l2.6-0.1 5.5 125.2-2.6 0.1z"/>
	<path class="s6" d="m574.3 565.7l-90.8-14c-0.6-0.1-1.2-0.5-1.6-1.1-0.5-0.5-0.6-1.2-0.5-1.9 0.1-0.7 0.5-1.3 1-1.7 0.6-0.4 1.2-0.5 1.9-0.4l90.8 14c0.7 0.1 1.3 0.5 1.7 1 0.4 0.6 0.6 1.3 0.5 2-0.1 0.6-0.5 1.2-1.1 1.6-0.5 0.5-1.2 0.6-1.9 0.5z"/>
	<path class="s6" d="m576.6 546.4l-90.7-14c-0.7-0.1-1.3-0.5-1.7-1-0.5-0.6-0.6-1.3-0.5-2 0.1-0.6 0.5-1.2 1-1.7 0.6-0.4 1.3-0.5 2-0.4l90.7 14c0.7 0.1 1.3 0.5 1.7 1 0.4 0.6 0.6 1.3 0.5 2-0.1 0.7-0.5 1.3-1.1 1.7-0.5 0.4-1.2 0.5-1.9 0.4z"/>
	<path class="s6" d="m578.9 527.2l-90.7-14.1c-0.7-0.1-1.3-0.5-1.7-1-0.4-0.6-0.6-1.2-0.5-1.9 0.1-0.7 0.5-1.3 1.1-1.7 0.5-0.4 1.2-0.6 1.9-0.5l90.7 14.1c0.7 0.1 1.3 0.4 1.7 1 0.4 0.5 0.6 1.2 0.5 1.9-0.1 0.7-0.5 1.3-1 1.7-0.6 0.4-1.3 0.6-2 0.5z"/>
	<path class="s6" d="m526.1 576.9c18 2.8 34.1-5 36.1-17.3l-65.2-10.1c-2 12.4 11.1 24.6 29.1 27.4z"/>
	<path class="s7" d="m558.7 327.1c-3.9-0.6-7.1-3.7-8.8-5.7q-0.9-1-1.7-2.1c-2.1-2.5-4-4.9-6.7-6.2-5.9-2.8-12.9 1.1-19 5.3l-1.4-2.2c6.6-4.5 14.4-8.8 21.5-5.4 3.2 1.5 5.5 4.2 7.6 6.9q0.8 1 1.6 2c1.9 2.1 5.5 5.6 9.4 4.8q0.6-0.2 1.2-0.4 0.6-0.3 1.2-0.6 0.6-0.3 1.1-0.6 0.5-0.4 1-0.8 0.4-0.3 0.8-0.5 0.4-0.3 0.8-0.5 0.4-0.3 0.8-0.5 0.4-0.3 0.8-0.5 1.7-0.8 3.5-1.1 1.9-0.3 3.7 0 1.9 0.3 3.6 1 1.7 0.8 3.1 2.1 0.3 0.2 0.5 0.5 0.2 0.2 0.5 0.4 0.2 0.3 0.4 0.6 0.3 0.2 0.5 0.5c1.2 1.3 2.3 2.6 3.7 3 2.1 0.7 4.3-0.5 6.7-1.8 2.4-1.3 5-2.7 7.8-2.3q0.2 0 0.3 0c5.1 0.8 7.5 6.4 8.8 10.6l-2.5 0.8c-1.8-5.7-4-8.6-6.9-8.9-2-0.2-4.1 0.9-6.3 2.1-2.7 1.5-5.5 3-8.7 2-2.1-0.7-3.5-2.3-4.9-3.8q-0.2-0.3-0.4-0.5-0.2-0.2-0.4-0.4-0.2-0.3-0.4-0.5-0.2-0.2-0.4-0.4-1.2-1-2.5-1.6-1.4-0.6-2.8-0.8-1.5-0.2-3 0-1.4 0.2-2.8 0.8-0.3 0.2-0.7 0.4-0.4 0.2-0.7 0.5-0.4 0.2-0.7 0.4-0.4 0.3-0.7 0.5-0.6 0.5-1.2 0.9-0.7 0.5-1.4 0.8-0.7 0.4-1.4 0.7-0.7 0.2-1.5 0.4-0.3 0.1-0.7 0.2-0.4 0-0.8 0-0.4 0-0.7 0-0.4 0-0.8-0.1z"/>
</svg>